<?xml version="1.0" encoding="UTF-8"?>
<svg version="1.1" xmlns="http://www.w3.org/2000/svg" width="300" height="75">
<path d="M0 0 C2.29949654 1.12300994 3.9825011 2.38600088 6 4 C6.99 3.34 7.98 2.68 9 2 C13.2886003 -0.42587492 16.10602613 -0.621457 21 0 C24.39403808 1.69701904 26.41363563 2.85026351 28.15185547 6.25854492 C29.1158339 9.37440956 29.22741898 11.91697382 29.1953125 15.17578125 C29.18886719 16.33271484 29.18242187 17.48964844 29.17578125 18.68164062 C29.15902344 19.87982422 29.14226562 21.07800781 29.125 22.3125 C29.11597656 23.53001953 29.10695312 24.74753906 29.09765625 26.00195312 C29.07413037 29.00150274 29.04125653 32.00065044 29 35 C26.03 35 23.06 35 20 35 C19.970271 33.92516357 19.970271 33.92516357 19.93994141 32.82861328 C19.84490481 29.5936937 19.73513981 26.35943906 19.625 23.125 C19.5940625 21.99707031 19.563125 20.86914062 19.53125 19.70703125 C19.47324219 18.09248047 19.47324219 18.09248047 19.4140625 16.4453125 C19.3826416 15.45031738 19.3512207 14.45532227 19.31884766 13.43017578 C19.22752917 10.82145483 19.22752917 10.82145483 17 9 C14 8.66666667 14 8.66666667 11 9 C8.39911378 11.60088622 8.70037775 12.82137113 8.5859375 16.4453125 C8.54726562 17.52167969 8.50859375 18.59804688 8.46875 19.70703125 C8.4378125 20.83496094 8.406875 21.96289062 8.375 23.125 C8.33632812 24.26066406 8.29765625 25.39632812 8.2578125 26.56640625 C8.16332399 29.37743956 8.07776459 32.18846233 8 35 C5.03 35 2.06 35 -1 35 C-1.01981934 34.31897217 -1.03963867 33.63794434 -1.06005859 32.9362793 C-1.15526983 29.85296083 -1.26496466 26.77032351 -1.375 23.6875 C-1.4059375 22.61564453 -1.436875 21.54378906 -1.46875 20.43945312 C-1.50742188 19.41142578 -1.54609375 18.38339844 -1.5859375 17.32421875 C-1.6173584 16.37635498 -1.6487793 15.42849121 -1.68115234 14.4519043 C-1.8489051 11.7469731 -1.8489051 11.7469731 -4 9 C-5.97747122 8.63702064 -5.97747122 8.63702064 -8.125 8.8125 C-9.40375 8.874375 -10.6825 8.93625 -12 9 C-12.88873597 12.09950623 -13.18543782 14.98504367 -13.31640625 18.203125 C-13.35830078 19.1828125 -13.40019531 20.1625 -13.44335938 21.171875 C-13.50233398 22.69554687 -13.50233398 22.69554687 -13.5625 24.25 C-13.60568359 25.28125 -13.64886719 26.3125 -13.69335938 27.375 C-13.79925682 29.9165387 -13.90133443 32.45817196 -14 35 C-16.97 35 -19.94 35 -23 35 C-23 23.78 -23 12.56 -23 1 C-20.03 1 -17.06 1 -14 1 C-13.67 1.66 -13.34 2.32 -13 3 C-12.34 2.505 -11.68 2.01 -11 1.5 C-7.27154109 -0.36422946 -4.05725334 -0.75134321 0 0 Z " fill="#E41621" transform="translate(106,21)"/>
<path d="M0 0 C4.9710149 2.53240382 8.49430567 5.98861134 11 11 C11.65298597 18.65385198 11.94895305 24.87892649 7 31 C3.14298855 34.18622685 0.02036173 35.79508728 -5 36 C-11.38297872 34.61702128 -11.38297872 34.61702128 -14 32 C-14.33 36.29 -14.66 40.58 -15 45 C-17.97 45 -20.94 45 -24 45 C-24 30.48 -24 15.96 -24 1 C-21.03 1 -18.06 1 -15 1 C-14.67 1.66 -14.34 2.32 -14 3 C-13.360625 2.505 -12.72125 2.01 -12.0625 1.5 C-7.93601292 -0.52113653 -4.51880686 -0.71853819 0 0 Z M-15 13 C-15.92534164 17.52844183 -15.57245775 20.90088112 -13.4375 25 C-10.21917807 27.64067441 -8.14068922 28 -4 28 C-0.82601664 26.73040666 0.55990792 25.70014649 2.375 22.8125 C3.45935856 17.93288649 3.10745525 13.7719284 0.4375 9.5 C-5.6429845 5.75816338 -11.21116432 7.19834537 -15 13 Z " fill="#E41621" transform="translate(165,21)"/>
<path d="M0 0 C2.5 1.6875 2.5 1.6875 4 3 C3.65120368 6.25543229 2.97866739 7.01873107 0.4375 9.25 C-0.366875 9.8275 -1.17125 10.405 -2 11 C-2.639375 10.360625 -3.27875 9.72125 -3.9375 9.0625 C-7.91849537 6.38142149 -11.23280063 5.77299051 -16 6 C-19.66836877 7.3586551 -22.55314886 8.90924067 -25 12 C-26.96454134 17.89362401 -26.99233868 23.97988198 -24.25 29.5625 C-21.54974346 32.48777792 -19.58820171 33.77461164 -15.6328125 34.3359375 C-9.72278345 34.42799403 -6.55287955 33.83400383 -2 30 C0.49361571 31.20381448 2.68143083 32.45428722 5 34 C3.59336477 38.2199057 0.75901374 39.93746999 -3 42 C-9.58702575 44.45516414 -16.66705824 44.95177557 -23.16796875 42.0234375 C-28.85671156 38.71478784 -33.57076388 34.23896326 -36 28 C-36.30078125 24.5390625 -36.30078125 24.5390625 -36.3125 20.625 C-36.32925781 19.33851562 -36.34601562 18.05203125 -36.36328125 16.7265625 C-35.78176725 10.76135433 -33.08222927 6.30901978 -29 2 C-19.81398316 -4.39587154 -10.00544901 -4.65770902 0 0 Z " fill="#E41621" transform="translate(36,13)"/>
<path d="M0 0 C4.52964945 2.28928288 7.28737016 5.54285949 8.99609375 10.3515625 C9.61077341 13.34752084 10.0289529 16.28908992 9.99609375 19.3515625 C8.31308706 21.03456919 6.17600648 20.57965327 3.8671875 20.66796875 C2.83271484 20.70986328 1.79824219 20.75175781 0.73242188 20.79492188 C-0.35619141 20.83423828 -1.44480469 20.87355469 -2.56640625 20.9140625 C-4.20512695 20.97883789 -4.20512695 20.97883789 -5.87695312 21.04492188 C-8.58580189 21.15138318 -11.29474617 21.25339766 -14.00390625 21.3515625 C-13.73714421 23.33647892 -13.73714421 23.33647892 -13.00390625 25.3515625 C-7.74852021 27.10335785 -3.51501844 26.99918201 1.49609375 24.8515625 C2.32109375 24.3565625 3.14609375 23.8615625 3.99609375 23.3515625 C5.31609375 24.6715625 6.63609375 25.9915625 7.99609375 27.3515625 C6.96914977 30.32970003 6.06155196 31.30948222 3.37109375 33.0390625 C-3.04035671 35.53240434 -7.8869697 36.10869848 -14.18359375 33.35546875 C-19.16350667 30.60903609 -21.82006578 26.80833649 -23.5625 21.53125 C-24.64420964 16.18971037 -23.77502819 11.81118617 -21.25390625 7.0390625 C-15.56179185 0.24014808 -8.73527447 -2.82661903 0 0 Z M-14.00390625 10.3515625 C-14.33390625 11.6715625 -14.66390625 12.9915625 -15.00390625 14.3515625 C-9.72390625 14.3515625 -4.44390625 14.3515625 0.99609375 14.3515625 C-0.27642609 8.6072785 -0.27642609 8.6072785 -2.87890625 6.9765625 C-8.04730776 5.45644441 -10.34323228 6.78982566 -14.00390625 10.3515625 Z " fill="#E41621" transform="translate(219.00390625,21.6484375)"/>
<path d="M0 0 C4.42484878 2.21242439 7.19476657 4.94799616 10 9 C11 12 11 12 11 21 C3.41 21.33 -4.18 21.66 -12 22 C-10.5 26 -10.5 26 -8 27 C-2.5842924 27.35512837 0.51066735 27.36699949 5 24 C6.7074998 25.28062485 8.37373596 26.61767557 10 28 C10 28.66 10 29.32 10 30 C5.12125176 34.16510156 0.35692251 36 -6 36 C-11.58270787 34.81924175 -15.41048712 32.51253047 -19 28 C-22.39901784 22.22166967 -22.54890691 17.37475294 -21 11 C-16.25462206 1.84819968 -9.87240991 -1.09355925 0 0 Z M-12 11 C-12.33 12.32 -12.66 13.64 -13 15 C-7.72 15 -2.44 15 3 15 C1.0726658 9.82311531 1.0726658 9.82311531 -3 7 C-7.70781138 7 -8.70934836 7.79828489 -12 11 Z " fill="#E41621" transform="translate(276,21)"/>
<path d="M0 0 C5.42159884 3.17361883 8.69726353 7.06444685 10.70703125 13.09375 C11.29791734 19.1207881 10.02142067 23.16359574 6.70703125 28.09375 C2.73910792 32.43957079 -1.00440381 34.11343468 -6.703125 34.99609375 C-11.898538 35.19199922 -16.13874953 33.92967987 -20.1171875 30.5390625 C-24.45576169 25.81180248 -26.37481336 21.67185517 -26.16796875 15.15625 C-25.20686537 9.37858258 -22.93289878 5.36553248 -18.23046875 1.71875 C-12.55226749 -1.42238261 -6.17215009 -2.43941877 0 0 Z M-14.16796875 8.53125 C-17.1757673 12.15830119 -17.58340393 15.44678713 -17.29296875 20.09375 C-16.09636353 23.05377344 -15.05125569 24.47588656 -12.60546875 26.46875 C-9.00824168 27.44097353 -5.84513831 27.20016347 -2.29296875 26.09375 C0.29343612 23.95996598 1.43937097 22.4738733 2.08203125 19.16015625 C2.31505685 15.30795173 1.95102667 13.47600949 -0.16796875 10.15625 C-2.90194862 7.5026813 -3.76681206 7.14338742 -7.60546875 6.78125 C-11.27510948 6.86315301 -11.27510948 6.86315301 -14.16796875 8.53125 Z " fill="#E41621" transform="translate(68.29296875,21.90625)"/>
<path d="M0 0 C6.15234375 -0.09765625 6.15234375 -0.09765625 8 0 C9 1 9 1 9.125 4.4375 C9 8 9 8 8 10 C10.97 10 13.94 10 17 10 C17 12.31 17 14.62 17 17 C14.03 17 11.06 17 8 17 C8.33 17.66 8.66 18.32 9 19 C9.07194869 21.88370333 9.09291708 24.74239664 9.0625 27.625 C9.05798828 28.42679688 9.05347656 29.22859375 9.04882812 30.0546875 C9.03703168 32.03649006 9.01909605 34.01825433 9 36 C13.455 35.505 13.455 35.505 18 35 C17.4140625 41.15234375 17.4140625 41.15234375 17 43 C14.59486979 44.20256511 12.87146436 44.2703777 10.1875 44.375 C9.33542969 44.42398438 8.48335937 44.47296875 7.60546875 44.5234375 C3.58279133 43.71528342 2.32781253 42.37574237 0 39 C-0.60141388 35.20813601 -0.471644 31.51430103 -0.3125 27.6875 C-0.28994141 26.66076172 -0.26738281 25.63402344 -0.24414062 24.57617188 C-0.18537575 22.0492821 -0.10327849 19.52539745 0 17 C-1.32 17 -2.64 17 -4 17 C-4 14.69 -4 12.38 -4 10 C-2.68 10 -1.36 10 0 10 C0 6.7 0 3.4 0 0 Z " fill="#E41621" transform="translate(235,12)"/>
<path d="M0 0 C2.64 0 5.28 0 8 0 C8 15.51 8 31.02 8 47 C5.36 47 2.72 47 0 47 C0 31.49 0 15.98 0 0 Z " fill="#E41621" transform="translate(182,9)"/>
<path d="M0 0 C2.375 0.6875 2.375 0.6875 3.375 1.6875 C3.625 4.625 3.625 4.625 3.375 7.6875 C0.375 9.6875 0.375 9.6875 -2.3125 9.3125 C-3.075625 9.10625 -3.83875 8.9 -4.625 8.6875 C-4.955 6.3775 -5.285 4.0675 -5.625 1.6875 C-2.625 -0.3125 -2.625 -0.3125 0 0 Z " fill="#E41621" transform="translate(296.625,46.3125)"/>
</svg>
